<?xml version="1.0" encoding="utf-8" standalone="no"?>
<!DOCTYPE svg PUBLIC "-//W3C//DTD SVG 1.1//EN"
  "http://www.w3.org/Graphics/SVG/1.1/DTD/svg11.dtd">
<svg xmlns:xlink="http://www.w3.org/1999/xlink" width="520.166359pt" height="228.038859pt" viewBox="0 0 520.166359 228.038859" xmlns="http://www.w3.org/2000/svg" version="1.1">
 <metadata>
  <rdf:RDF xmlns:dc="http://purl.org/dc/elements/1.1/" xmlns:cc="http://creativecommons.org/ns#" xmlns:rdf="http://www.w3.org/1999/02/22-rdf-syntax-ns#">
   <cc:Work>
    <dc:type rdf:resource="http://purl.org/dc/dcmitype/StillImage"/>
    <dc:date>2026-07-13T21:34:16.873962</dc:date>
    <dc:format>image/svg+xml</dc:format>
    <dc:creator>
     <cc:Agent>
      <dc:title>Matplotlib v3.10.9, https://matplotlib.org/</dc:title>
     </cc:Agent>
    </dc:creator>
   </cc:Work>
  </rdf:RDF>
 </metadata>
 <defs>
  <style type="text/css">*{stroke-linejoin: round; stroke-linecap: butt}</style>
 </defs>
 <g id="figure_1">
  <g id="patch_1">
   <path d="M 0 228.038859 
L 520.166359 228.038859 
L 520.166359 0 
L 0 0 
z
" style="fill: #ffffff"/>
  </g>
  <g id="axes_1">
   <g id="patch_2">
    <path d="M 37.606359 197.133156 
L 256.887203 197.133156 
L 256.887203 19.069406 
L 37.606359 19.069406 
z
" style="fill: #ffffff"/>
   </g>
   <g id="line2d_1">
    <path d="M 116.157518 180.182202 
L 178.602919 108.616576 
L 222.163278 56.359556 
L 223.720494 39.972967 
" clip-path="url(#peb8d1cbbb7)" style="fill: none; stroke-dasharray: 2.96,1.28; stroke-dashoffset: 0; stroke: #444444; stroke-width: 0.8"/>
   </g>
   <g id="matplotlib.axis_1">
    <g id="xtick_1">
     <g id="line2d_2">
      <defs>
       <path id="m2544a4b389" d="M 0 0 
L 0 3.5 
" style="stroke: #000000; stroke-width: 0.8"/>
      </defs>
      <g>
       <use xlink:href="#m2544a4b389" x="47.352175" y="197.133156" style="stroke: #000000; stroke-width: 0.8"/>
      </g>
     </g>
     <g id="text_1">
      <text style="font-size: 6.5px; font-family: 'Arial', 'DejaVu Sans', 'Liberation Sans', sans-serif; text-anchor: middle" x="47.352175" y="208.785734" transform="rotate(-0 47.352175 208.785734)">0.770</text>
     </g>
    </g>
    <g id="xtick_2">
     <g id="line2d_3">
      <g>
       <use xlink:href="#m2544a4b389" x="71.716713" y="197.133156" style="stroke: #000000; stroke-width: 0.8"/>
      </g>
     </g>
     <g id="text_2">
      <text style="font-size: 6.5px; font-family: 'Arial', 'DejaVu Sans', 'Liberation Sans', sans-serif; text-anchor: middle" x="71.716713" y="208.785734" transform="rotate(-0 71.716713 208.785734)">0.775</text>
     </g>
    </g>
    <g id="xtick_3">
     <g id="line2d_4">
      <g>
       <use xlink:href="#m2544a4b389" x="96.081251" y="197.133156" style="stroke: #000000; stroke-width: 0.8"/>
      </g>
     </g>
     <g id="text_3">
      <text style="font-size: 6.5px; font-family: 'Arial', 'DejaVu Sans', 'Liberation Sans', sans-serif; text-anchor: middle" x="96.081251" y="208.785734" transform="rotate(-0 96.081251 208.785734)">0.780</text>
     </g>
    </g>
    <g id="xtick_4">
     <g id="line2d_5">
      <g>
       <use xlink:href="#m2544a4b389" x="120.445789" y="197.133156" style="stroke: #000000; stroke-width: 0.8"/>
      </g>
     </g>
     <g id="text_4">
      <text style="font-size: 6.5px; font-family: 'Arial', 'DejaVu Sans', 'Liberation Sans', sans-serif; text-anchor: middle" x="120.445789" y="208.785734" transform="rotate(-0 120.445789 208.785734)">0.785</text>
     </g>
    </g>
    <g id="xtick_5">
     <g id="line2d_6">
      <g>
       <use xlink:href="#m2544a4b389" x="144.810328" y="197.133156" style="stroke: #000000; stroke-width: 0.8"/>
      </g>
     </g>
     <g id="text_5">
      <text style="font-size: 6.5px; font-family: 'Arial', 'DejaVu Sans', 'Liberation Sans', sans-serif; text-anchor: middle" x="144.810328" y="208.785734" transform="rotate(-0 144.810328 208.785734)">0.790</text>
     </g>
    </g>
    <g id="xtick_6">
     <g id="line2d_7">
      <g>
       <use xlink:href="#m2544a4b389" x="169.174866" y="197.133156" style="stroke: #000000; stroke-width: 0.8"/>
      </g>
     </g>
     <g id="text_6">
      <text style="font-size: 6.5px; font-family: 'Arial', 'DejaVu Sans', 'Liberation Sans', sans-serif; text-anchor: middle" x="169.174866" y="208.785734" transform="rotate(-0 169.174866 208.785734)">0.795</text>
     </g>
    </g>
    <g id="xtick_7">
     <g id="line2d_8">
      <g>
       <use xlink:href="#m2544a4b389" x="193.539404" y="197.133156" style="stroke: #000000; stroke-width: 0.8"/>
      </g>
     </g>
     <g id="text_7">
      <text style="font-size: 6.5px; font-family: 'Arial', 'DejaVu Sans', 'Liberation Sans', sans-serif; text-anchor: middle" x="193.539404" y="208.785734" transform="rotate(-0 193.539404 208.785734)">0.800</text>
     </g>
    </g>
    <g id="xtick_8">
     <g id="line2d_9">
      <g>
       <use xlink:href="#m2544a4b389" x="217.903942" y="197.133156" style="stroke: #000000; stroke-width: 0.8"/>
      </g>
     </g>
     <g id="text_8">
      <text style="font-size: 6.5px; font-family: 'Arial', 'DejaVu Sans', 'Liberation Sans', sans-serif; text-anchor: middle" x="217.903942" y="208.785734" transform="rotate(-0 217.903942 208.785734)">0.805</text>
     </g>
    </g>
    <g id="xtick_9">
     <g id="line2d_10">
      <g>
       <use xlink:href="#m2544a4b389" x="242.26848" y="197.133156" style="stroke: #000000; stroke-width: 0.8"/>
      </g>
     </g>
     <g id="text_9">
      <text style="font-size: 6.5px; font-family: 'Arial', 'DejaVu Sans', 'Liberation Sans', sans-serif; text-anchor: middle" x="242.26848" y="208.785734" transform="rotate(-0 242.26848 208.785734)">0.810</text>
     </g>
    </g>
    <g id="text_10">
     <text style="font-size: 7.2px; font-family: 'Arial', 'DejaVu Sans', 'Liberation Sans', sans-serif; text-anchor: middle" x="147.246781" y="219.323484" transform="rotate(-0 147.246781 219.323484)">Affected macro-AUROC (higher is better)</text>
    </g>
   </g>
   <g id="matplotlib.axis_2">
    <g id="ytick_1">
     <g id="line2d_11">
      <defs>
       <path id="mea6495a738" d="M 0 0 
L -3.5 0 
" style="stroke: #000000; stroke-width: 0.8"/>
      </defs>
      <g>
       <use xlink:href="#mea6495a738" x="37.606359" y="191.568664" style="stroke: #000000; stroke-width: 0.8"/>
      </g>
     </g>
     <g id="text_11">
      <text style="font-size: 6.5px; font-family: 'Arial', 'DejaVu Sans', 'Liberation Sans', sans-serif; text-anchor: end" x="30.606359" y="193.894953" transform="rotate(-0 30.606359 193.894953)">0.20</text>
     </g>
    </g>
    <g id="ytick_2">
     <g id="line2d_12">
      <g>
       <use xlink:href="#mea6495a738" x="37.606359" y="169.310695" style="stroke: #000000; stroke-width: 0.8"/>
      </g>
     </g>
     <g id="text_12">
      <text style="font-size: 6.5px; font-family: 'Arial', 'DejaVu Sans', 'Liberation Sans', sans-serif; text-anchor: end" x="30.606359" y="171.636984" transform="rotate(-0 30.606359 171.636984)">0.22</text>
     </g>
    </g>
    <g id="ytick_3">
     <g id="line2d_13">
      <g>
       <use xlink:href="#mea6495a738" x="37.606359" y="147.052727" style="stroke: #000000; stroke-width: 0.8"/>
      </g>
     </g>
     <g id="text_13">
      <text style="font-size: 6.5px; font-family: 'Arial', 'DejaVu Sans', 'Liberation Sans', sans-serif; text-anchor: end" x="30.606359" y="149.379016" transform="rotate(-0 30.606359 149.379016)">0.24</text>
     </g>
    </g>
    <g id="ytick_4">
     <g id="line2d_14">
      <g>
       <use xlink:href="#mea6495a738" x="37.606359" y="124.794758" style="stroke: #000000; stroke-width: 0.8"/>
      </g>
     </g>
     <g id="text_14">
      <text style="font-size: 6.5px; font-family: 'Arial', 'DejaVu Sans', 'Liberation Sans', sans-serif; text-anchor: end" x="30.606359" y="127.121047" transform="rotate(-0 30.606359 127.121047)">0.26</text>
     </g>
    </g>
    <g id="ytick_5">
     <g id="line2d_15">
      <g>
       <use xlink:href="#mea6495a738" x="37.606359" y="102.536789" style="stroke: #000000; stroke-width: 0.8"/>
      </g>
     </g>
     <g id="text_15">
      <text style="font-size: 6.5px; font-family: 'Arial', 'DejaVu Sans', 'Liberation Sans', sans-serif; text-anchor: end" x="30.606359" y="104.863078" transform="rotate(-0 30.606359 104.863078)">0.28</text>
     </g>
    </g>
    <g id="ytick_6">
     <g id="line2d_16">
      <g>
       <use xlink:href="#mea6495a738" x="37.606359" y="80.27882" style="stroke: #000000; stroke-width: 0.8"/>
      </g>
     </g>
     <g id="text_16">
      <text style="font-size: 6.5px; font-family: 'Arial', 'DejaVu Sans', 'Liberation Sans', sans-serif; text-anchor: end" x="30.606359" y="82.605109" transform="rotate(-0 30.606359 82.605109)">0.30</text>
     </g>
    </g>
    <g id="ytick_7">
     <g id="line2d_17">
      <g>
       <use xlink:href="#mea6495a738" x="37.606359" y="58.020852" style="stroke: #000000; stroke-width: 0.8"/>
      </g>
     </g>
     <g id="text_17">
      <text style="font-size: 6.5px; font-family: 'Arial', 'DejaVu Sans', 'Liberation Sans', sans-serif; text-anchor: end" x="30.606359" y="60.347141" transform="rotate(-0 30.606359 60.347141)">0.32</text>
     </g>
    </g>
    <g id="ytick_8">
     <g id="line2d_18">
      <g>
       <use xlink:href="#mea6495a738" x="37.606359" y="35.762883" style="stroke: #000000; stroke-width: 0.8"/>
      </g>
     </g>
     <g id="text_18">
      <text style="font-size: 6.5px; font-family: 'Arial', 'DejaVu Sans', 'Liberation Sans', sans-serif; text-anchor: end" x="30.606359" y="38.089172" transform="rotate(-0 30.606359 38.089172)">0.34</text>
     </g>
    </g>
    <g id="text_19">
     <text style="font-size: 7.2px; font-family: 'Arial', 'DejaVu Sans', 'Liberation Sans', sans-serif; text-anchor: middle" x="12.441375" y="108.101281" transform="rotate(-90 12.441375 108.101281)">Affected ECE (lower is better)</text>
    </g>
   </g>
   <g id="patch_3">
    <path d="M 37.606359 197.133156 
L 37.606359 19.069406 
" style="fill: none; stroke: #000000; stroke-width: 0.8; stroke-linejoin: miter; stroke-linecap: square"/>
   </g>
   <g id="patch_4">
    <path d="M 37.606359 197.133156 
L 256.887203 197.133156 
" style="fill: none; stroke: #000000; stroke-width: 0.8; stroke-linejoin: miter; stroke-linecap: square"/>
   </g>
   <g id="PathCollection_1">
    <defs>
     <path id="m6282748f99" d="M 0 2.783882 
C 0.738294 2.783882 1.446449 2.490555 1.968502 1.968502 
C 2.490555 1.446449 2.783882 0.738294 2.783882 0 
C 2.783882 -0.738294 2.490555 -1.446449 1.968502 -1.968502 
C 1.446449 -2.490555 0.738294 -2.783882 0 -2.783882 
C -0.738294 -2.783882 -1.446449 -2.490555 -1.968502 -1.968502 
C -2.490555 -1.446449 -2.783882 -0.738294 -2.783882 0 
C -2.783882 0.738294 -2.490555 1.446449 -1.968502 1.968502 
C -1.446449 2.490555 -0.738294 2.783882 0 2.783882 
z
" style="stroke: #ffffff; stroke-width: 0.5"/>
    </defs>
    <g clip-path="url(#peb8d1cbbb7)">
     <use xlink:href="#m6282748f99" x="178.602919" y="108.616576" style="fill: #d98256; stroke: #ffffff; stroke-width: 0.5"/>
    </g>
   </g>
   <g id="text_20">
    <text style="font-size: 5.8px; font-family: 'Arial', 'DejaVu Sans', 'Liberation Sans', sans-serif; text-anchor: start" x="123.602919" y="100.616576" transform="rotate(-0 123.602919 100.616576)">RO-CAGF</text>
   </g>
   <g id="PathCollection_2">
    <defs>
     <path id="m9c6792f84c" d="M 0 2.783882 
C 0.738294 2.783882 1.446449 2.490555 1.968502 1.968502 
C 2.490555 1.446449 2.783882 0.738294 2.783882 0 
C 2.783882 -0.738294 2.490555 -1.446449 1.968502 -1.968502 
C 1.446449 -2.490555 0.738294 -2.783882 0 -2.783882 
C -0.738294 -2.783882 -1.446449 -2.490555 -1.968502 -1.968502 
C -2.490555 -1.446449 -2.783882 -0.738294 -2.783882 0 
C -2.783882 0.738294 -2.490555 1.446449 -1.968502 1.968502 
C -1.446449 2.490555 -0.738294 2.783882 0 2.783882 
z
" style="stroke: #ffffff; stroke-width: 0.5"/>
    </defs>
    <g clip-path="url(#peb8d1cbbb7)">
     <use xlink:href="#m9c6792f84c" x="204.82019" y="33.97881" style="fill: #59a14f; stroke: #ffffff; stroke-width: 0.5"/>
    </g>
   </g>
   <g id="text_21">
    <text style="font-size: 5.8px; font-family: 'Arial', 'DejaVu Sans', 'Liberation Sans', sans-serif; text-anchor: start" x="130.82019" y="45.97881" transform="rotate(-0 130.82019 45.97881)">RO-PDRF-Lite</text>
   </g>
   <g id="PathCollection_3">
    <defs>
     <path id="m3aaa798d73" d="M 0 2.783882 
C 0.738294 2.783882 1.446449 2.490555 1.968502 1.968502 
C 2.490555 1.446449 2.783882 0.738294 2.783882 0 
C 2.783882 -0.738294 2.490555 -1.446449 1.968502 -1.968502 
C 1.446449 -2.490555 0.738294 -2.783882 0 -2.783882 
C -0.738294 -2.783882 -1.446449 -2.490555 -1.968502 -1.968502 
C -2.490555 -1.446449 -2.783882 -0.738294 -2.783882 0 
C -2.783882 0.738294 -2.490555 1.446449 -1.968502 1.968502 
C -1.446449 2.490555 -0.738294 2.783882 0 2.783882 
z
" style="stroke: #ffffff; stroke-width: 0.5"/>
    </defs>
    <g clip-path="url(#peb8d1cbbb7)">
     <use xlink:href="#m3aaa798d73" x="214.398894" y="33.31235" style="fill: #2f8f6b; stroke: #ffffff; stroke-width: 0.5"/>
    </g>
   </g>
   <g id="text_22">
    <text style="font-size: 5.8px; font-family: 'Arial', 'DejaVu Sans', 'Liberation Sans', sans-serif; text-anchor: start" x="136.398894" y="28.31235" transform="rotate(-0 136.398894 28.31235)">RO-PDRF-Full</text>
   </g>
   <g id="PathCollection_4">
    <defs>
     <path id="md66a984767" d="M 0 2.783882 
C 0.738294 2.783882 1.446449 2.490555 1.968502 1.968502 
C 2.490555 1.446449 2.783882 0.738294 2.783882 0 
C 2.783882 -0.738294 2.490555 -1.446449 1.968502 -1.968502 
C 1.446449 -2.490555 0.738294 -2.783882 0 -2.783882 
C -0.738294 -2.783882 -1.446449 -2.490555 -1.968502 -1.968502 
C -2.490555 -1.446449 -2.783882 -0.738294 -2.783882 0 
C -2.783882 0.738294 -2.490555 1.446449 -1.968502 1.968502 
C -1.446449 2.490555 -0.738294 2.783882 0 2.783882 
z
" style="stroke: #ffffff; stroke-width: 0.5"/>
    </defs>
    <g clip-path="url(#peb8d1cbbb7)">
     <use xlink:href="#md66a984767" x="116.157518" y="180.182202" style="fill: #7a68a6; stroke: #ffffff; stroke-width: 0.5"/>
    </g>
   </g>
   <g id="text_23">
    <text style="font-size: 5.8px; font-family: 'Arial', 'DejaVu Sans', 'Liberation Sans', sans-serif; text-anchor: start" x="121.157518" y="175.182202" transform="rotate(-0 121.157518 175.182202)">RO-AT-GATE</text>
   </g>
   <g id="PathCollection_5">
    <defs>
     <path id="m3282bce23f" d="M 0 2.783882 
C 0.738294 2.783882 1.446449 2.490555 1.968502 1.968502 
C 2.490555 1.446449 2.783882 0.738294 2.783882 0 
C 2.783882 -0.738294 2.490555 -1.446449 1.968502 -1.968502 
C 1.446449 -2.490555 0.738294 -2.783882 0 -2.783882 
C -0.738294 -2.783882 -1.446449 -2.490555 -1.968502 -1.968502 
C -2.490555 -1.446449 -2.783882 -0.738294 -2.783882 0 
C -2.783882 0.738294 -2.490555 1.446449 -1.968502 1.968502 
C -1.446449 2.490555 -0.738294 2.783882 0 2.783882 
z
" style="stroke: #ffffff; stroke-width: 0.5"/>
    </defs>
    <g clip-path="url(#peb8d1cbbb7)">
     <use xlink:href="#m3282bce23f" x="222.163278" y="56.359556" style="fill: #4c78a8; stroke: #ffffff; stroke-width: 0.5"/>
    </g>
   </g>
   <g id="text_24">
    <text style="font-size: 5.8px; font-family: 'Arial', 'DejaVu Sans', 'Liberation Sans', sans-serif; text-anchor: start" x="227.163278" y="68.359556" transform="rotate(-0 227.163278 68.359556)">RO-PDRF-EMA</text>
   </g>
   <g id="PathCollection_6">
    <defs>
     <path id="m9d129d330b" d="M 0 2.783882 
C 0.738294 2.783882 1.446449 2.490555 1.968502 1.968502 
C 2.490555 1.446449 2.783882 0.738294 2.783882 0 
C 2.783882 -0.738294 2.490555 -1.446449 1.968502 -1.968502 
C 1.446449 -2.490555 0.738294 -2.783882 0 -2.783882 
C -0.738294 -2.783882 -1.446449 -2.490555 -1.968502 -1.968502 
C -2.490555 -1.446449 -2.783882 -0.738294 -2.783882 0 
C -2.783882 0.738294 -2.490555 1.446449 -1.968502 1.968502 
C -1.446449 2.490555 -0.738294 2.783882 0 2.783882 
z
" style="stroke: #ffffff; stroke-width: 0.5"/>
    </defs>
    <g clip-path="url(#peb8d1cbbb7)">
     <use xlink:href="#m9d129d330b" x="72.479558" y="94.736273" style="fill: #777777; stroke: #ffffff; stroke-width: 0.5"/>
    </g>
   </g>
   <g id="text_25">
    <text style="font-size: 5.8px; font-family: 'Arial', 'DejaVu Sans', 'Liberation Sans', sans-serif; text-anchor: start" x="77.479558" y="89.736273" transform="rotate(-0 77.479558 89.736273)">QMF-PD</text>
   </g>
   <g id="PathCollection_7">
    <defs>
     <path id="mf1634a6fc3" d="M 0 2.783882 
C 0.738294 2.783882 1.446449 2.490555 1.968502 1.968502 
C 2.490555 1.446449 2.783882 0.738294 2.783882 0 
C 2.783882 -0.738294 2.490555 -1.446449 1.968502 -1.968502 
C 1.446449 -2.490555 0.738294 -2.783882 0 -2.783882 
C -0.738294 -2.783882 -1.446449 -2.490555 -1.968502 -1.968502 
C -2.490555 -1.446449 -2.783882 -0.738294 -2.783882 0 
C -2.783882 0.738294 -2.490555 1.446449 -1.968502 1.968502 
C -1.446449 2.490555 -0.738294 2.783882 0 2.783882 
z
" style="stroke: #ffffff; stroke-width: 0.5"/>
    </defs>
    <g clip-path="url(#peb8d1cbbb7)">
     <use xlink:href="#mf1634a6fc3" x="223.720494" y="39.972967" style="fill: #c94c4c; stroke: #ffffff; stroke-width: 0.5"/>
    </g>
   </g>
   <g id="text_26">
    <text style="font-size: 5.8px; font-family: 'Arial', 'DejaVu Sans', 'Liberation Sans', sans-serif; text-anchor: start" x="228.720494" y="34.972967" transform="rotate(-0 228.720494 34.972967)">CE-conflict training audit</text>
   </g>
   <g id="text_27">
    <text style="font-weight: 700; font-size: 8.2px; font-family: 'Arial', 'DejaVu Sans', 'Liberation Sans', sans-serif; text-anchor: start" x="37.606359" y="13.069406" transform="rotate(-0 37.606359 13.069406)">a  Ranking--calibration audit</text>
   </g>
  </g>
  <g id="axes_2">
   <g id="patch_5">
    <path d="M 327.135136 197.133156 
L 512.966359 197.133156 
L 512.966359 19.069406 
L 327.135136 19.069406 
z
" style="fill: #ffffff"/>
   </g>
   <g id="patch_6">
    <path d="M 335.58201 197.133156 
L 351.190363 197.133156 
L 351.190363 119.842857 
L 335.58201 119.842857 
z
" clip-path="url(#p9a09aa32a9)" style="fill: #1b9e77"/>
   </g>
   <g id="patch_7">
    <path d="M 381.488932 197.133156 
L 397.097286 197.133156 
L 397.097286 107.871954 
L 381.488932 107.871954 
z
" clip-path="url(#p9a09aa32a9)" style="fill: #1b9e77"/>
   </g>
   <g id="patch_8">
    <path d="M 427.395855 197.133156 
L 443.004209 197.133156 
L 443.004209 94.865358 
L 427.395855 94.865358 
z
" clip-path="url(#p9a09aa32a9)" style="fill: #1b9e77"/>
   </g>
   <g id="patch_9">
    <path d="M 473.302778 197.133156 
L 488.911132 197.133156 
L 488.911132 107.196703 
L 473.302778 107.196703 
z
" clip-path="url(#p9a09aa32a9)" style="fill: #1b9e77"/>
   </g>
   <g id="patch_10">
    <path d="M 351.190363 197.133156 
L 366.798717 197.133156 
L 366.798717 79.976722 
L 351.190363 79.976722 
z
" clip-path="url(#p9a09aa32a9)" style="fill: #c94c4c"/>
   </g>
   <g id="patch_11">
    <path d="M 397.097286 197.133156 
L 412.70564 197.133156 
L 412.70564 77.677918 
L 397.097286 77.677918 
z
" clip-path="url(#p9a09aa32a9)" style="fill: #c94c4c"/>
   </g>
   <g id="patch_12">
    <path d="M 443.004209 197.133156 
L 458.612563 197.133156 
L 458.612563 50.648186 
L 443.004209 50.648186 
z
" clip-path="url(#p9a09aa32a9)" style="fill: #c94c4c"/>
   </g>
   <g id="patch_13">
    <path d="M 488.911132 197.133156 
L 504.519486 197.133156 
L 504.519486 67.550298 
L 488.911132 67.550298 
z
" clip-path="url(#p9a09aa32a9)" style="fill: #c94c4c"/>
   </g>
   <g id="matplotlib.axis_3">
    <g id="xtick_10">
     <g id="line2d_19">
      <g>
       <use xlink:href="#m2544a4b389" x="351.190363" y="197.133156" style="stroke: #000000; stroke-width: 0.8"/>
      </g>
     </g>
     <g id="text_28">
      <text style="font-size: 6.5px; font-family: 'Arial', 'DejaVu Sans', 'Liberation Sans', sans-serif; text-anchor: middle" x="351.190363" y="208.785734" transform="rotate(-0 351.190363 208.785734)">Clean</text>
     </g>
    </g>
    <g id="xtick_11">
     <g id="line2d_20">
      <g>
       <use xlink:href="#m2544a4b389" x="397.097286" y="197.133156" style="stroke: #000000; stroke-width: 0.8"/>
      </g>
     </g>
     <g id="text_29">
      <text style="font-size: 6.5px; font-family: 'Arial', 'DejaVu Sans', 'Liberation Sans', sans-serif" transform="translate(376.144942 208.785734)">Clean/removal</text>
      <text style="font-size: 6.5px; font-family: 'Arial', 'DejaVu Sans', 'Liberation Sans', sans-serif" transform="translate(381.561271 215.660703)">agreement</text>
     </g>
    </g>
    <g id="xtick_12">
     <g id="line2d_21">
      <g>
       <use xlink:href="#m2544a4b389" x="443.004209" y="197.133156" style="stroke: #000000; stroke-width: 0.8"/>
      </g>
     </g>
     <g id="text_30">
      <text style="font-size: 6.5px; font-family: 'Arial', 'DejaVu Sans', 'Liberation Sans', sans-serif" transform="translate(423.855615 208.785734)">Student/EMA</text>
      <text style="font-size: 6.5px; font-family: 'Arial', 'DejaVu Sans', 'Liberation Sans', sans-serif" transform="translate(427.468193 215.660703)">agreement</text>
     </g>
    </g>
    <g id="xtick_13">
     <g id="line2d_22">
      <g>
       <use xlink:href="#m2544a4b389" x="488.911132" y="197.133156" style="stroke: #000000; stroke-width: 0.8"/>
      </g>
     </g>
     <g id="text_31">
      <text style="font-size: 6.5px; font-family: 'Arial', 'DejaVu Sans', 'Liberation Sans', sans-serif" transform="translate(473.199413 208.785734)">CE-conflict</text>
      <text style="font-size: 6.5px; font-family: 'Arial', 'DejaVu Sans', 'Liberation Sans', sans-serif" transform="translate(470.302851 215.660703)">training audit</text>
     </g>
    </g>
   </g>
   <g id="matplotlib.axis_4">
    <g id="ytick_9">
     <g id="line2d_23">
      <g>
       <use xlink:href="#mea6495a738" x="327.135136" y="197.133156" style="stroke: #000000; stroke-width: 0.8"/>
      </g>
     </g>
     <g id="text_32">
      <text style="font-size: 6.5px; font-family: 'Arial', 'DejaVu Sans', 'Liberation Sans', sans-serif; text-anchor: end" x="320.135136" y="199.459445" transform="rotate(-0 320.135136 199.459445)">0.0</text>
     </g>
    </g>
    <g id="ytick_10">
     <g id="line2d_24">
      <g>
       <use xlink:href="#mea6495a738" x="327.135136" y="160.793615" style="stroke: #000000; stroke-width: 0.8"/>
      </g>
     </g>
     <g id="text_33">
      <text style="font-size: 6.5px; font-family: 'Arial', 'DejaVu Sans', 'Liberation Sans', sans-serif; text-anchor: end" x="320.135136" y="163.119904" transform="rotate(-0 320.135136 163.119904)">0.1</text>
     </g>
    </g>
    <g id="ytick_11">
     <g id="line2d_25">
      <g>
       <use xlink:href="#mea6495a738" x="327.135136" y="124.454075" style="stroke: #000000; stroke-width: 0.8"/>
      </g>
     </g>
     <g id="text_34">
      <text style="font-size: 6.5px; font-family: 'Arial', 'DejaVu Sans', 'Liberation Sans', sans-serif; text-anchor: end" x="320.135136" y="126.780364" transform="rotate(-0 320.135136 126.780364)">0.2</text>
     </g>
    </g>
    <g id="ytick_12">
     <g id="line2d_26">
      <g>
       <use xlink:href="#mea6495a738" x="327.135136" y="88.114534" style="stroke: #000000; stroke-width: 0.8"/>
      </g>
     </g>
     <g id="text_35">
      <text style="font-size: 6.5px; font-family: 'Arial', 'DejaVu Sans', 'Liberation Sans', sans-serif; text-anchor: end" x="320.135136" y="90.440823" transform="rotate(-0 320.135136 90.440823)">0.3</text>
     </g>
    </g>
    <g id="ytick_13">
     <g id="line2d_27">
      <g>
       <use xlink:href="#mea6495a738" x="327.135136" y="51.774993" style="stroke: #000000; stroke-width: 0.8"/>
      </g>
     </g>
     <g id="text_36">
      <text style="font-size: 6.5px; font-family: 'Arial', 'DejaVu Sans', 'Liberation Sans', sans-serif; text-anchor: end" x="320.135136" y="54.101282" transform="rotate(-0 320.135136 54.101282)">0.4</text>
     </g>
    </g>
    <g id="text_37">
     <text style="font-size: 7.2px; font-family: 'Arial', 'DejaVu Sans', 'Liberation Sans', sans-serif; text-anchor: middle" x="305.669136" y="108.101281" transform="rotate(-90 305.669136 108.101281)">Conditional fraction</text>
    </g>
   </g>
   <g id="patch_14">
    <path d="M 327.135136 197.133156 
L 327.135136 19.069406 
" style="fill: none; stroke: #000000; stroke-width: 0.8; stroke-linejoin: miter; stroke-linecap: square"/>
   </g>
   <g id="patch_15">
    <path d="M 327.135136 197.133156 
L 512.966359 197.133156 
" style="fill: none; stroke: #000000; stroke-width: 0.8; stroke-linejoin: miter; stroke-linecap: square"/>
   </g>
   <g id="text_38">
    <text style="font-size: 5.6px; font-family: 'Arial', 'DejaVu Sans', 'Liberation Sans', sans-serif; text-anchor: middle" x="343.386186" y="114.369112" transform="rotate(-0 343.386186 114.369112)">21.3%</text>
   </g>
   <g id="text_39">
    <text style="font-size: 5.6px; font-family: 'Arial', 'DejaVu Sans', 'Liberation Sans', sans-serif; text-anchor: middle" x="389.293109" y="102.398209" transform="rotate(-0 389.293109 102.398209)">24.6%</text>
   </g>
   <g id="text_40">
    <text style="font-size: 5.6px; font-family: 'Arial', 'DejaVu Sans', 'Liberation Sans', sans-serif; text-anchor: middle" x="435.200032" y="89.391613" transform="rotate(-0 435.200032 89.391613)">28.1%</text>
   </g>
   <g id="text_41">
    <text style="font-size: 5.6px; font-family: 'Arial', 'DejaVu Sans', 'Liberation Sans', sans-serif; text-anchor: middle" x="481.106955" y="101.722958" transform="rotate(-0 481.106955 101.722958)">24.7%</text>
   </g>
   <g id="text_42">
    <text style="font-size: 5.6px; font-family: 'Arial', 'DejaVu Sans', 'Liberation Sans', sans-serif; text-anchor: middle" x="358.99454" y="74.502977" transform="rotate(-0 358.99454 74.502977)">32.2%</text>
   </g>
   <g id="text_43">
    <text style="font-size: 5.6px; font-family: 'Arial', 'DejaVu Sans', 'Liberation Sans', sans-serif; text-anchor: middle" x="404.901463" y="72.204173" transform="rotate(-0 404.901463 72.204173)">32.9%</text>
   </g>
   <g id="text_44">
    <text style="font-size: 5.6px; font-family: 'Arial', 'DejaVu Sans', 'Liberation Sans', sans-serif; text-anchor: middle" x="450.808386" y="45.174441" transform="rotate(-0 450.808386 45.174441)">40.3%</text>
   </g>
   <g id="text_45">
    <text style="font-size: 5.6px; font-family: 'Arial', 'DejaVu Sans', 'Liberation Sans', sans-serif; text-anchor: middle" x="496.715309" y="62.076553" transform="rotate(-0 496.715309 62.076553)">35.7%</text>
   </g>
   <g id="text_46">
    <text style="font-weight: 700; font-size: 8.2px; font-family: 'Arial', 'DejaVu Sans', 'Liberation Sans', sans-serif; text-anchor: start" x="327.135136" y="13.069406" transform="rotate(-0 327.135136 13.069406)">b  Teacher-error controls</text>
   </g>
   <g id="legend_1">
    <g id="patch_16">
     <path d="M 332.175136 28.186031 
L 343.375136 28.186031 
L 343.375136 24.266031 
L 332.175136 24.266031 
z
" style="fill: #1b9e77"/>
    </g>
    <g id="text_47">
     <text style="font-size: 5.6px; font-family: 'Arial', 'DejaVu Sans', 'Liberation Sans', sans-serif; text-anchor: start" x="347.855136" y="28.186031" transform="rotate(-0 347.855136 28.186031)">Conditional recovery</text>
    </g>
    <g id="patch_17">
     <path d="M 332.175136 36.173031 
L 343.375136 36.173031 
L 343.375136 32.253031 
L 332.175136 32.253031 
z
" style="fill: #c94c4c"/>
    </g>
    <g id="text_48">
     <text style="font-size: 5.6px; font-family: 'Arial', 'DejaVu Sans', 'Liberation Sans', sans-serif; text-anchor: start" x="347.855136" y="36.173031" transform="rotate(-0 347.855136 36.173031)">Conditional error transfer</text>
    </g>
   </g>
  </g>
 </g>
 <defs>
  <clipPath id="peb8d1cbbb7">
   <rect x="37.606359" y="19.069406" width="219.280844" height="178.06375"/>
  </clipPath>
  <clipPath id="p9a09aa32a9">
   <rect x="327.135136" y="19.069406" width="185.831224" height="178.06375"/>
  </clipPath>
 </defs>
</svg>
